# xmcd
#
# Track frame offsets:
#	150
#	35137
#	55379
#	87973
#	115897
#
# Disc length: 1864 seconds
#
# Revision: 1
# Processed by: cddbd v1.5.2PL0 Copyright (c) Steve Scherf et al.
# Submitted via: audiograbber 1.83.01
#
DISCID=40074605
DTITLE=Grateful Dead - 69-08-03 Family Dog at the Great Highway, San Francisco 
DTITLE=CA
DYEAR=1900
DGENRE=
TTITLE0=Hard To Handle
TTITLE1=BIODTL
TTITLE2=Hi Heeled Sneekers
TTITLE3=High Time
TTITLE4=Mama Tried
EXTD=
EXTT0=
EXTT1=
EXTT2=
EXTT3=
EXTT4=
PLAYORDER=
